# xmcd CD database file
#
# Track frame offsets:
#	150
#	26377
#	36252
#	80290
#	113227
#
# Disc length: 1892 seconds
#
# Revision: 1
# Processed by: cddbd v1.5.2PL0 Copyright (c) Steve Scherf et al.
# Submitted via: CDex 1.70beta3
#
DISCID=31076205
DTITLE=middle 9 - Swing and Circle on the Fluyt
DYEAR=2006
DGENRE=Pop
TTITLE0=lonie
TTITLE1=Alula Living
TTITLE2=dance dance dance
TTITLE3=Petit
TTITLE4=ROMA
EXTD=YEAR: 2006
EXTT0=
EXTT1=
EXTT2=
EXTT3=
EXTT4=
PLAYORDER=
